<svg width="55" height="55" viewBox="0 0 55 55" fill="none" xmlns="http://www.w3.org/2000/svg">
<path d="M55 27.5C55 42.6878 42.6878 55 27.5 55C12.3122 55 0 42.6878 0 27.5C0 12.3122 12.3122 0 27.5 0C42.6878 0 55 12.3122 55 27.5Z" fill="#008CC8"/>
<path d="M42.075 37.4367C42.1917 37.4367 42.3083 37.4834 42.425 37.5767C42.5417 37.6467 42.6 37.7517 42.6 37.8917V39.0817C42.6 39.1984 42.5417 39.3034 42.425 39.3967C42.3083 39.4901 42.1917 39.5367 42.075 39.5367H12.325C12.185 39.5367 12.0567 39.4901 11.94 39.3967C11.8467 39.3034 11.8 39.1984 11.8 39.0817V37.8917C11.8 37.7517 11.8467 37.6467 11.94 37.5767C12.0567 37.4834 12.185 37.4367 12.325 37.4367H25.905V30.1567C24.7617 30.0634 23.595 29.8534 22.405 29.5267C21.2383 29.2001 20.165 28.7217 19.185 28.0917C18.2283 27.4617 17.4467 26.6801 16.84 25.7467C16.2333 24.8134 15.93 23.6934 15.93 22.3867C15.93 20.9634 16.28 19.7617 16.98 18.7817C17.7033 17.7784 18.6133 16.9734 19.71 16.3667C20.83 15.7601 22.0433 15.3167 23.35 15.0367C24.68 14.7567 25.94 14.6167 27.13 14.6167C28.3433 14.6167 29.615 14.7567 30.945 15.0367C32.275 15.3167 33.4767 15.7601 34.55 16.3667C35.6467 16.9734 36.545 17.7784 37.245 18.7817C37.9683 19.7617 38.33 20.9634 38.33 22.3867C38.33 23.6934 38.0267 24.8251 37.42 25.7817C36.8133 26.7151 36.0317 27.4967 35.075 28.1267C34.1183 28.7334 33.045 29.2117 31.855 29.5617C30.665 29.8884 29.4867 30.0867 28.32 30.1567V37.4367H42.075ZM27.13 16.8217C26.3133 16.8217 25.4033 16.9034 24.4 17.0667C23.42 17.2301 22.4867 17.5217 21.6 17.9417C20.7367 18.3617 20.0017 18.9334 19.395 19.6567C18.8117 20.3801 18.52 21.3017 18.52 22.4217C18.52 23.5417 18.8117 24.4634 19.395 25.1867C20.0017 25.9101 20.7367 26.4817 21.6 26.9017C22.4867 27.2984 23.42 27.5784 24.4 27.7417C25.4033 27.9051 26.3133 27.9867 27.13 27.9867C27.9233 27.9867 28.81 27.9051 29.79 27.7417C30.7933 27.5784 31.7267 27.2984 32.59 26.9017C33.4767 26.4817 34.2233 25.9101 34.83 25.1867C35.4367 24.4634 35.74 23.5417 35.74 22.4217C35.74 21.3017 35.4367 20.3801 34.83 19.6567C34.2233 18.9334 33.4767 18.3617 32.59 17.9417C31.7267 17.5217 30.7933 17.2301 29.79 17.0667C28.81 16.9034 27.9233 16.8217 27.13 16.8217Z" fill="white"/>
</svg>
