<svg width="54" height="19" viewBox="0 0 54 19" fill="none" xmlns="http://www.w3.org/2000/svg">
<rect width="54" height="19" rx="9.5" fill="#99E599"/>
<path d="M16.2016 5.74V12.47H17.0316V5.74H16.2016ZM9.86156 6.47V7.15H14.6216V6.47H9.86156ZM9.71156 11.11C11.1816 11.11 13.2116 11.08 14.9516 10.8L14.9016 10.18C13.2116 10.38 11.1016 10.4 9.62156 10.4L9.71156 11.11ZM10.7616 7.05V10.52H11.5616V7.05H10.7616ZM12.9216 7.05V10.52H13.7216V7.05H12.9216ZM14.7016 7.45V8.13H16.6416V7.45H14.7016ZM14.7016 9.18V9.86H16.6416V9.18H14.7016ZM11.2516 13.9V14.58H17.2716V13.9H11.2516ZM11.2516 11.92V14.33H12.0816V11.92H11.2516ZM20.8674 6.52V7.21C20.8674 8.44 19.9374 9.56 18.5774 10L18.9974 10.66C20.5174 10.14 21.5574 8.8 21.5574 7.21V6.52H20.8674ZM21.0274 6.52V7.21C21.0274 8.74 22.0874 10.01 23.5874 10.5L23.9974 9.85C22.6674 9.43 21.7174 8.38 21.7174 7.21V6.52H21.0274ZM18.8074 6.33V7H23.7574V6.33H18.8074ZM25.0374 5.74V10.63H25.8774V5.74H25.0374ZM20.0474 11.08V14.66H25.8774V11.08H25.0574V12.15H20.8674V11.08H20.0474ZM20.8674 12.82H25.0574V13.98H20.8674V12.82ZM33.4533 5.74V14.78H34.2833V5.74H33.4533ZM34.0833 9.45V10.15H35.7633V9.45H34.0833ZM27.2833 7.18V7.86H32.6133V7.18H27.2833ZM29.9833 8.61C28.7133 8.61 27.7833 9.47 27.7833 10.69C27.7833 11.91 28.7133 12.77 29.9833 12.77C31.2633 12.77 32.1833 11.91 32.1833 10.69C32.1833 9.47 31.2633 8.61 29.9833 8.61ZM29.9833 9.3C30.8033 9.3 31.3933 9.87 31.3933 10.69C31.3933 11.5 30.8033 12.08 29.9833 12.08C29.1633 12.08 28.5733 11.5 28.5733 10.69C28.5733 9.87 29.1633 9.3 29.9833 9.3ZM29.5533 5.85V7.49H30.3833V5.85H29.5533ZM42.7792 5.74V14.78H43.6092V5.74H42.7792ZM40.1292 6.71V6.85C40.1292 9.25 38.9192 11.17 36.3092 12.43L36.7492 13.1C39.7692 11.62 40.9492 9.33 40.9492 6.71H40.1292ZM36.7192 6.71V7.39H40.4892V6.71H36.7192Z" fill="black"/>
</svg>
