<svg width="58" height="30" viewBox="0 0 58 30" fill="none" xmlns="http://www.w3.org/2000/svg">
<rect y="2" width="34" height="26" fill="#D9D9D9"/>
<path d="M58 15L33.25 27.9904V2.00962L58 15Z" fill="#D9D9D9"/>
<path d="M8.76 19.04C8.63333 19.04 8.57 18.9967 8.57 18.91V18.34C8.57 18.2867 8.58333 18.2333 8.61 18.18C8.64333 18.1267 8.68 18.0733 8.72 18.02L10.24 16.22C10.7933 15.56 11.2033 15.01 11.47 14.57C11.7367 14.13 11.87 13.77 11.87 13.49C11.87 13.17 11.77 12.9067 11.57 12.7C11.3767 12.4933 11.1367 12.39 10.85 12.39C10.5767 12.39 10.31 12.43 10.05 12.51C9.79667 12.5833 9.52 12.7067 9.22 12.88C9.16667 12.9133 9.11333 12.93 9.06 12.93C9.00667 12.9233 8.97333 12.89 8.96 12.83L8.82 12.07C8.80667 12.0367 8.81 12.0033 8.83 11.97C8.85 11.9367 8.89333 11.9 8.96 11.86C9.21333 11.7267 9.50333 11.6067 9.83 11.5C10.1567 11.3933 10.4767 11.34 10.79 11.34C11.11 11.34 11.4033 11.3867 11.67 11.48C11.9433 11.5667 12.1767 11.7 12.37 11.88C12.57 12.0533 12.7267 12.2733 12.84 12.54C12.9533 12.8067 13.01 13.1133 13.01 13.46C13.01 13.76 12.9433 14.0667 12.81 14.38C12.6767 14.6867 12.51 14.99 12.31 15.29C12.11 15.5833 11.8967 15.8667 11.67 16.14C11.4433 16.4067 11.2367 16.65 11.05 16.87C10.9033 17.05 10.7467 17.24 10.58 17.44C10.42 17.6333 10.2567 17.8233 10.09 18.01H13.02C13.1133 18.01 13.16 18.0633 13.16 18.17V18.87C13.16 18.9833 13.1133 19.04 13.02 19.04H8.76ZM17.1345 19.08C16.2811 19.08 15.6478 18.7433 15.2345 18.07C14.8278 17.39 14.6245 16.44 14.6245 15.22C14.6245 14.8067 14.6545 14.3733 14.7145 13.92C14.7811 13.4667 14.9045 13.05 15.0845 12.67C15.2711 12.29 15.5278 11.9767 15.8545 11.73C16.1811 11.4833 16.6078 11.36 17.1345 11.36C17.4811 11.36 17.7845 11.4167 18.0445 11.53C18.3045 11.6433 18.5245 11.8 18.7045 12C18.8911 12.1933 19.0445 12.42 19.1645 12.68C19.2845 12.9333 19.3778 13.2033 19.4445 13.49C19.5111 13.7767 19.5578 14.07 19.5845 14.37C19.6111 14.6633 19.6245 14.9467 19.6245 15.22C19.6245 15.8267 19.5745 16.37 19.4745 16.85C19.3745 17.33 19.2211 17.7367 19.0145 18.07C18.8078 18.3967 18.5478 18.6467 18.2345 18.82C17.9278 18.9933 17.5611 19.08 17.1345 19.08ZM17.1345 12.45C16.9211 12.45 16.7311 12.5 16.5645 12.6C16.3978 12.6933 16.2545 12.85 16.1345 13.07C16.0145 13.29 15.9211 13.5767 15.8545 13.93C15.7945 14.2833 15.7645 14.7133 15.7645 15.22C15.7645 15.7333 15.7945 16.1667 15.8545 16.52C15.9211 16.8733 16.0145 17.16 16.1345 17.38C16.2545 17.6 16.3978 17.76 16.5645 17.86C16.7311 17.9533 16.9211 18 17.1345 18C17.3411 18 17.5278 17.9533 17.6945 17.86C17.8678 17.76 18.0145 17.6 18.1345 17.38C18.2545 17.16 18.3445 16.8733 18.4045 16.52C18.4711 16.1667 18.5045 15.7333 18.5045 15.22C18.5045 14.7133 18.4711 14.2833 18.4045 13.93C18.3445 13.5767 18.2545 13.29 18.1345 13.07C18.0145 12.85 17.8678 12.6933 17.6945 12.6C17.5278 12.5 17.3411 12.45 17.1345 12.45ZM23.1989 19.08C22.3456 19.08 21.7122 18.7433 21.2989 18.07C20.8922 17.39 20.6889 16.44 20.6889 15.22C20.6889 14.8067 20.7189 14.3733 20.7789 13.92C20.8456 13.4667 20.9689 13.05 21.1489 12.67C21.3356 12.29 21.5922 11.9767 21.9189 11.73C22.2456 11.4833 22.6722 11.36 23.1989 11.36C23.5456 11.36 23.8489 11.4167 24.1089 11.53C24.3689 11.6433 24.5889 11.8 24.7689 12C24.9556 12.1933 25.1089 12.42 25.2289 12.68C25.3489 12.9333 25.4422 13.2033 25.5089 13.49C25.5756 13.7767 25.6222 14.07 25.6489 14.37C25.6756 14.6633 25.6889 14.9467 25.6889 15.22C25.6889 15.8267 25.6389 16.37 25.5389 16.85C25.4389 17.33 25.2856 17.7367 25.0789 18.07C24.8722 18.3967 24.6122 18.6467 24.2989 18.82C23.9922 18.9933 23.6256 19.08 23.1989 19.08ZM23.1989 12.45C22.9856 12.45 22.7956 12.5 22.6289 12.6C22.4622 12.6933 22.3189 12.85 22.1989 13.07C22.0789 13.29 21.9856 13.5767 21.9189 13.93C21.8589 14.2833 21.8289 14.7133 21.8289 15.22C21.8289 15.7333 21.8589 16.1667 21.9189 16.52C21.9856 16.8733 22.0789 17.16 22.1989 17.38C22.3189 17.6 22.4622 17.76 22.6289 17.86C22.7956 17.9533 22.9856 18 23.1989 18C23.4056 18 23.5922 17.9533 23.7589 17.86C23.9322 17.76 24.0789 17.6 24.1989 17.38C24.3189 17.16 24.4089 16.8733 24.4689 16.52C24.5356 16.1667 24.5689 15.7333 24.5689 15.22C24.5689 14.7133 24.5356 14.2833 24.4689 13.93C24.4089 13.5767 24.3189 13.29 24.1989 13.07C24.0789 12.85 23.9322 12.6933 23.7589 12.6C23.5922 12.5 23.4056 12.45 23.1989 12.45ZM33.5334 18.98C33.5 18.98 33.47 18.9667 33.4434 18.94C33.4167 18.9067 33.4034 18.8733 33.4034 18.84V15.38C33.4034 15.0667 33.33 14.8133 33.1834 14.62C33.0367 14.42 32.8234 14.32 32.5434 14.32C32.3434 14.32 32.1634 14.3633 32.0034 14.45C31.85 14.53 31.72 14.6433 31.6134 14.79C31.5067 14.93 31.4234 15.1 31.3634 15.3C31.31 15.5 31.2834 15.7167 31.2834 15.95V18.85C31.2834 18.9367 31.2434 18.98 31.1634 18.98H30.3334C30.3 18.98 30.27 18.9667 30.2434 18.94C30.2167 18.9067 30.2034 18.8733 30.2034 18.84V15.38C30.2034 14.6733 29.91 14.32 29.3234 14.32C28.95 14.32 28.6567 14.4333 28.4434 14.66C28.2367 14.8867 28.1334 15.2 28.1334 15.6V18.85C28.1334 18.9367 28.0934 18.98 28.0134 18.98H27.1834C27.15 18.98 27.12 18.9667 27.0934 18.94C27.0734 18.9067 27.0634 18.8733 27.0634 18.84V14.86C27.0634 14.6067 27.06 14.3633 27.0534 14.13C27.0467 13.8967 27.0367 13.7133 27.0234 13.58C27.01 13.4933 27.0567 13.45 27.1634 13.45H28.0134C28.0734 13.45 28.1034 13.4767 28.1034 13.53L28.0934 13.88C28.2267 13.7267 28.41 13.5967 28.6434 13.49C28.8767 13.3833 29.1234 13.33 29.3834 13.33C29.73 13.33 30.0467 13.41 30.3334 13.57C30.62 13.73 30.8267 13.9667 30.9534 14.28C31.1067 13.96 31.3334 13.7233 31.6334 13.57C31.9334 13.41 32.2534 13.33 32.5934 13.33C33.16 13.33 33.6167 13.5 33.9634 13.84C34.31 14.1733 34.4834 14.6433 34.4834 15.25V18.85C34.4834 18.8833 34.47 18.9133 34.4434 18.94C34.4234 18.9667 34.3967 18.98 34.3634 18.98H33.5334Z" fill="black"/>
</svg>
