<svg width="58" height="211" viewBox="0 0 58 211" fill="none" xmlns="http://www.w3.org/2000/svg">
<circle cx="27" cy="108" r="16" fill="#99E599"/>
<path d="M29.75 110.35V112H23.3008V110.604L26.2715 107.48C26.5339 107.18 26.7454 106.911 26.9062 106.674C27.0671 106.433 27.1834 106.215 27.2554 106.021C27.3315 105.826 27.3696 105.65 27.3696 105.494C27.3696 105.227 27.3294 105.005 27.249 104.827C27.1729 104.645 27.0586 104.508 26.9062 104.415C26.7581 104.321 26.5741 104.275 26.354 104.275C26.134 104.275 25.9414 104.338 25.7764 104.465C25.6113 104.592 25.4823 104.766 25.3892 104.986C25.3003 105.206 25.2559 105.453 25.2559 105.729H23.1104C23.1104 105.161 23.2479 104.643 23.5229 104.173C23.8022 103.704 24.1895 103.329 24.6846 103.05C25.1797 102.766 25.7531 102.625 26.4048 102.625C27.0861 102.625 27.6574 102.73 28.1187 102.942C28.5799 103.153 28.9269 103.46 29.1597 103.862C29.3966 104.26 29.5151 104.74 29.5151 105.303C29.5151 105.625 29.4644 105.934 29.3628 106.23C29.2612 106.526 29.1152 106.82 28.9248 107.112C28.7344 107.4 28.5016 107.696 28.2266 108.001C27.9557 108.306 27.6468 108.629 27.2998 108.972L26.1064 110.35H29.75Z" fill="white"/>
<circle cx="27" cy="16" r="16" fill="#99E599"/>
<line x1="26.5" y1="92.0083" x2="26.5" y2="32" stroke="black"/>
<path d="M27.8551 19.857C27.8551 19.9783 27.7944 20.039 27.6731 20.039H27.1401C27.0188 20.039 26.9581 19.9783 26.9581 19.857V11.407C26.6894 11.6323 26.4381 11.8447 26.2041 12.044C25.9701 12.2433 25.7231 12.4557 25.4631 12.681C25.3678 12.759 25.2811 12.7503 25.2031 12.655L24.9431 12.343C24.9171 12.2997 24.9041 12.2563 24.9041 12.213C24.9041 12.161 24.9258 12.1177 24.9691 12.083L26.9841 10.393C27.0188 10.3583 27.0708 10.341 27.1401 10.341H27.4911C27.6731 10.341 27.7771 10.3583 27.8031 10.393C27.8378 10.419 27.8551 10.523 27.8551 10.705V19.857Z" fill="white"/>
<line x1="26.5" y1="194" x2="26.5" y2="124" stroke="black"/>
<ellipse cx="27" cy="202.5" rx="8" ry="8.5" fill="#99E599" fill-opacity="0.45"/>
<rect y="46" width="34" height="26" fill="#D9D9D9"/>
<path d="M58 59L33.25 71.9904V46.0096L58 59Z" fill="#D9D9D9"/>
<path d="M8.76 63.04C8.63333 63.04 8.57 62.9967 8.57 62.91V62.34C8.57 62.2867 8.58333 62.2333 8.61 62.18C8.64333 62.1267 8.68 62.0733 8.72 62.02L10.24 60.22C10.7933 59.56 11.2033 59.01 11.47 58.57C11.7367 58.13 11.87 57.77 11.87 57.49C11.87 57.17 11.77 56.9067 11.57 56.7C11.3767 56.4933 11.1367 56.39 10.85 56.39C10.5767 56.39 10.31 56.43 10.05 56.51C9.79667 56.5833 9.52 56.7067 9.22 56.88C9.16667 56.9133 9.11333 56.93 9.06 56.93C9.00667 56.9233 8.97333 56.89 8.96 56.83L8.82 56.07C8.80667 56.0367 8.81 56.0033 8.83 55.97C8.85 55.9367 8.89333 55.9 8.96 55.86C9.21333 55.7267 9.50333 55.6067 9.83 55.5C10.1567 55.3933 10.4767 55.34 10.79 55.34C11.11 55.34 11.4033 55.3867 11.67 55.48C11.9433 55.5667 12.1767 55.7 12.37 55.88C12.57 56.0533 12.7267 56.2733 12.84 56.54C12.9533 56.8067 13.01 57.1133 13.01 57.46C13.01 57.76 12.9433 58.0667 12.81 58.38C12.6767 58.6867 12.51 58.99 12.31 59.29C12.11 59.5833 11.8967 59.8667 11.67 60.14C11.4433 60.4067 11.2367 60.65 11.05 60.87C10.9033 61.05 10.7467 61.24 10.58 61.44C10.42 61.6333 10.2567 61.8233 10.09 62.01H13.02C13.1133 62.01 13.16 62.0633 13.16 62.17V62.87C13.16 62.9833 13.1133 63.04 13.02 63.04H8.76ZM17.1345 63.08C16.2811 63.08 15.6478 62.7433 15.2345 62.07C14.8278 61.39 14.6245 60.44 14.6245 59.22C14.6245 58.8067 14.6545 58.3733 14.7145 57.92C14.7811 57.4667 14.9045 57.05 15.0845 56.67C15.2711 56.29 15.5278 55.9767 15.8545 55.73C16.1811 55.4833 16.6078 55.36 17.1345 55.36C17.4811 55.36 17.7845 55.4167 18.0445 55.53C18.3045 55.6433 18.5245 55.8 18.7045 56C18.8911 56.1933 19.0445 56.42 19.1645 56.68C19.2845 56.9333 19.3778 57.2033 19.4445 57.49C19.5111 57.7767 19.5578 58.07 19.5845 58.37C19.6111 58.6633 19.6245 58.9467 19.6245 59.22C19.6245 59.8267 19.5745 60.37 19.4745 60.85C19.3745 61.33 19.2211 61.7367 19.0145 62.07C18.8078 62.3967 18.5478 62.6467 18.2345 62.82C17.9278 62.9933 17.5611 63.08 17.1345 63.08ZM17.1345 56.45C16.9211 56.45 16.7311 56.5 16.5645 56.6C16.3978 56.6933 16.2545 56.85 16.1345 57.07C16.0145 57.29 15.9211 57.5767 15.8545 57.93C15.7945 58.2833 15.7645 58.7133 15.7645 59.22C15.7645 59.7333 15.7945 60.1667 15.8545 60.52C15.9211 60.8733 16.0145 61.16 16.1345 61.38C16.2545 61.6 16.3978 61.76 16.5645 61.86C16.7311 61.9533 16.9211 62 17.1345 62C17.3411 62 17.5278 61.9533 17.6945 61.86C17.8678 61.76 18.0145 61.6 18.1345 61.38C18.2545 61.16 18.3445 60.8733 18.4045 60.52C18.4711 60.1667 18.5045 59.7333 18.5045 59.22C18.5045 58.7133 18.4711 58.2833 18.4045 57.93C18.3445 57.5767 18.2545 57.29 18.1345 57.07C18.0145 56.85 17.8678 56.6933 17.6945 56.6C17.5278 56.5 17.3411 56.45 17.1345 56.45ZM23.1989 63.08C22.3456 63.08 21.7122 62.7433 21.2989 62.07C20.8922 61.39 20.6889 60.44 20.6889 59.22C20.6889 58.8067 20.7189 58.3733 20.7789 57.92C20.8456 57.4667 20.9689 57.05 21.1489 56.67C21.3356 56.29 21.5922 55.9767 21.9189 55.73C22.2456 55.4833 22.6722 55.36 23.1989 55.36C23.5456 55.36 23.8489 55.4167 24.1089 55.53C24.3689 55.6433 24.5889 55.8 24.7689 56C24.9556 56.1933 25.1089 56.42 25.2289 56.68C25.3489 56.9333 25.4422 57.2033 25.5089 57.49C25.5756 57.7767 25.6222 58.07 25.6489 58.37C25.6756 58.6633 25.6889 58.9467 25.6889 59.22C25.6889 59.8267 25.6389 60.37 25.5389 60.85C25.4389 61.33 25.2856 61.7367 25.0789 62.07C24.8722 62.3967 24.6122 62.6467 24.2989 62.82C23.9922 62.9933 23.6256 63.08 23.1989 63.08ZM23.1989 56.45C22.9856 56.45 22.7956 56.5 22.6289 56.6C22.4622 56.6933 22.3189 56.85 22.1989 57.07C22.0789 57.29 21.9856 57.5767 21.9189 57.93C21.8589 58.2833 21.8289 58.7133 21.8289 59.22C21.8289 59.7333 21.8589 60.1667 21.9189 60.52C21.9856 60.8733 22.0789 61.16 22.1989 61.38C22.3189 61.6 22.4622 61.76 22.6289 61.86C22.7956 61.9533 22.9856 62 23.1989 62C23.4056 62 23.5922 61.9533 23.7589 61.86C23.9322 61.76 24.0789 61.6 24.1989 61.38C24.3189 61.16 24.4089 60.8733 24.4689 60.52C24.5356 60.1667 24.5689 59.7333 24.5689 59.22C24.5689 58.7133 24.5356 58.2833 24.4689 57.93C24.4089 57.5767 24.3189 57.29 24.1989 57.07C24.0789 56.85 23.9322 56.6933 23.7589 56.6C23.5922 56.5 23.4056 56.45 23.1989 56.45ZM33.5334 62.98C33.5 62.98 33.47 62.9667 33.4434 62.94C33.4167 62.9067 33.4034 62.8733 33.4034 62.84V59.38C33.4034 59.0667 33.33 58.8133 33.1834 58.62C33.0367 58.42 32.8234 58.32 32.5434 58.32C32.3434 58.32 32.1634 58.3633 32.0034 58.45C31.85 58.53 31.72 58.6433 31.6134 58.79C31.5067 58.93 31.4234 59.1 31.3634 59.3C31.31 59.5 31.2834 59.7167 31.2834 59.95V62.85C31.2834 62.9367 31.2434 62.98 31.1634 62.98H30.3334C30.3 62.98 30.27 62.9667 30.2434 62.94C30.2167 62.9067 30.2034 62.8733 30.2034 62.84V59.38C30.2034 58.6733 29.91 58.32 29.3234 58.32C28.95 58.32 28.6567 58.4333 28.4434 58.66C28.2367 58.8867 28.1334 59.2 28.1334 59.6V62.85C28.1334 62.9367 28.0934 62.98 28.0134 62.98H27.1834C27.15 62.98 27.12 62.9667 27.0934 62.94C27.0734 62.9067 27.0634 62.8733 27.0634 62.84V58.86C27.0634 58.6067 27.06 58.3633 27.0534 58.13C27.0467 57.8967 27.0367 57.7133 27.0234 57.58C27.01 57.4933 27.0567 57.45 27.1634 57.45H28.0134C28.0734 57.45 28.1034 57.4767 28.1034 57.53L28.0934 57.88C28.2267 57.7267 28.41 57.5967 28.6434 57.49C28.8767 57.3833 29.1234 57.33 29.3834 57.33C29.73 57.33 30.0467 57.41 30.3334 57.57C30.62 57.73 30.8267 57.9667 30.9534 58.28C31.1067 57.96 31.3334 57.7233 31.6334 57.57C31.9334 57.41 32.2534 57.33 32.5934 57.33C33.16 57.33 33.6167 57.5 33.9634 57.84C34.31 58.1733 34.4834 58.6433 34.4834 59.25V62.85C34.4834 62.8833 34.47 62.9133 34.4434 62.94C34.4234 62.9667 34.3967 62.98 34.3634 62.98H33.5334Z" fill="black"/>
</svg>
