<svg width="32" height="211" viewBox="0 0 32 211" fill="none" xmlns="http://www.w3.org/2000/svg">
<circle cx="16" cy="108" r="16" fill="#99E599"/>
<path d="M18.75 110.35V112H12.3008V110.604L15.2715 107.48C15.5339 107.18 15.7454 106.911 15.9062 106.674C16.0671 106.433 16.1834 106.215 16.2554 106.021C16.3315 105.826 16.3696 105.65 16.3696 105.494C16.3696 105.227 16.3294 105.005 16.249 104.827C16.1729 104.645 16.0586 104.508 15.9062 104.415C15.7581 104.321 15.5741 104.275 15.354 104.275C15.134 104.275 14.9414 104.338 14.7764 104.465C14.6113 104.592 14.4823 104.766 14.3892 104.986C14.3003 105.206 14.2559 105.453 14.2559 105.729H12.1104C12.1104 105.161 12.2479 104.643 12.5229 104.173C12.8022 103.704 13.1895 103.329 13.6846 103.05C14.1797 102.766 14.7531 102.625 15.4048 102.625C16.0861 102.625 16.6574 102.73 17.1187 102.942C17.5799 103.153 17.9269 103.46 18.1597 103.862C18.3966 104.26 18.5151 104.74 18.5151 105.303C18.5151 105.625 18.4644 105.934 18.3628 106.23C18.2612 106.526 18.1152 106.82 17.9248 107.112C17.7344 107.4 17.5016 107.696 17.2266 108.001C16.9557 108.306 16.6468 108.629 16.2998 108.972L15.1064 110.35H18.75Z" fill="white"/>
<circle cx="16" cy="16" r="16" fill="#99E599"/>
<line x1="15.5" y1="92.0083" x2="15.5" y2="32" stroke="black"/>
<path d="M16.8551 19.857C16.8551 19.9783 16.7944 20.039 16.6731 20.039H16.1401C16.0188 20.039 15.9581 19.9783 15.9581 19.857V11.407C15.6894 11.6323 15.4381 11.8447 15.2041 12.044C14.9701 12.2433 14.7231 12.4557 14.4631 12.681C14.3678 12.759 14.2811 12.7503 14.2031 12.655L13.9431 12.343C13.9171 12.2997 13.9041 12.2563 13.9041 12.213C13.9041 12.161 13.9258 12.1177 13.9691 12.083L15.9841 10.393C16.0188 10.3583 16.0708 10.341 16.1401 10.341H16.4911C16.6731 10.341 16.7771 10.3583 16.8031 10.393C16.8378 10.419 16.8551 10.523 16.8551 10.705V19.857Z" fill="white"/>
<line x1="15.5" y1="194" x2="15.5" y2="124" stroke="black"/>
<ellipse cx="16" cy="202.5" rx="8" ry="8.5" fill="#99E599" fill-opacity="0.45"/>
</svg>
