<svg width="28" height="28" viewBox="0 0 28 28" fill="none" xmlns="http://www.w3.org/2000/svg">
<path d="M27 14C27 21.1797 21.1797 27 14 27C6.8203 27 1 21.1797 1 14C1 6.8203 6.8203 1 14 1C21.1797 1 27 6.8203 27 14Z" fill="#008CC8" stroke="white" stroke-width="2"/>
<path d="M19.635 17.414C19.6783 17.414 19.7217 17.4313 19.765 17.466C19.8083 17.492 19.83 17.531 19.83 17.583V18.025C19.83 18.0683 19.8083 18.1073 19.765 18.142C19.7217 18.1767 19.6783 18.194 19.635 18.194H8.585C8.533 18.194 8.48533 18.1767 8.442 18.142C8.40733 18.1073 8.39 18.0683 8.39 18.025V17.583C8.39 17.531 8.40733 17.492 8.442 17.466C8.48533 17.4313 8.533 17.414 8.585 17.414H13.629V14.71C13.2043 14.6753 12.771 14.5973 12.329 14.476C11.8957 14.3547 11.497 14.177 11.133 13.943C10.7777 13.709 10.4873 13.4187 10.262 13.072C10.0367 12.7253 9.924 12.3093 9.924 11.824C9.924 11.2953 10.054 10.849 10.314 10.485C10.5827 10.1123 10.9207 9.81333 11.328 9.588C11.744 9.36267 12.1947 9.198 12.68 9.094C13.174 8.99 13.642 8.938 14.084 8.938C14.5347 8.938 15.007 8.99 15.501 9.094C15.995 9.198 16.4413 9.36267 16.84 9.588C17.2473 9.81333 17.581 10.1123 17.841 10.485C18.1097 10.849 18.244 11.2953 18.244 11.824C18.244 12.3093 18.1313 12.7297 17.906 13.085C17.6807 13.4317 17.3903 13.722 17.035 13.956C16.6797 14.1813 16.281 14.359 15.839 14.489C15.397 14.6103 14.9593 14.684 14.526 14.71V17.414H19.635ZM14.084 9.757C13.7807 9.757 13.4427 9.78733 13.07 9.848C12.706 9.90867 12.3593 10.017 12.03 10.173C11.7093 10.329 11.4363 10.5413 11.211 10.81C10.9943 11.0787 10.886 11.421 10.886 11.837C10.886 12.253 10.9943 12.5953 11.211 12.864C11.4363 13.1327 11.7093 13.345 12.03 13.501C12.3593 13.6483 12.706 13.7523 13.07 13.813C13.4427 13.8737 13.7807 13.904 14.084 13.904C14.3787 13.904 14.708 13.8737 15.072 13.813C15.4447 13.7523 15.7913 13.6483 16.112 13.501C16.4413 13.345 16.7187 13.1327 16.944 12.864C17.1693 12.5953 17.282 12.253 17.282 11.837C17.282 11.421 17.1693 11.0787 16.944 10.81C16.7187 10.5413 16.4413 10.329 16.112 10.173C15.7913 10.017 15.4447 9.90867 15.072 9.848C14.708 9.78733 14.3787 9.757 14.084 9.757Z" fill="white"/>
</svg>
