<svg width="35" height="37" viewBox="0 0 35 37" fill="none" xmlns="http://www.w3.org/2000/svg">
<path fill-rule="evenodd" clip-rule="evenodd" d="M25.2862 14.418C25.2862 21.347 20.0848 26.8361 13.8207 26.8361C7.55657 26.8361 2.35522 21.347 2.35522 14.418C2.35522 7.48912 7.55657 2 13.8207 2C20.0848 2 25.2862 7.48912 25.2862 14.418ZM22.2849 24.2687C20.062 26.4829 17.0881 27.8361 13.8207 27.8361C6.93621 27.8361 1.35522 21.8286 1.35522 14.418C1.35522 7.00746 6.93621 1 13.8207 1C20.7052 1 26.2862 7.00746 26.2862 14.418C26.2862 17.9378 25.0272 21.141 22.9675 23.5343L32.9723 34.3061L32.2396 34.9867L22.2849 24.2687Z" fill="black" fill-opacity="0.8"/>
<path d="M22.2849 24.2687L23.0176 23.5882L22.3128 22.8294L21.5791 23.5602L22.2849 24.2687ZM22.9675 23.5343L22.2096 22.882L21.6263 23.5597L22.2348 24.2148L22.9675 23.5343ZM32.9723 34.3061L33.6529 35.0388L34.3856 34.3583L33.705 33.6256L32.9723 34.3061ZM32.2396 34.9867L31.5069 35.6672L32.1874 36.3999L32.9202 35.7194L32.2396 34.9867ZM13.8207 27.8361C20.7035 27.8361 26.2862 21.8304 26.2862 14.418H24.2862C24.2862 20.8635 19.4662 25.8361 13.8207 25.8361V27.8361ZM1.35522 14.418C1.35522 21.8304 6.93789 27.8361 13.8207 27.8361V25.8361C8.17524 25.8361 3.35522 20.8635 3.35522 14.418H1.35522ZM13.8207 1C6.93789 1 1.35522 7.00565 1.35522 14.418H3.35522C3.35522 7.97259 8.17524 3 13.8207 3V1ZM26.2862 14.418C26.2862 7.00565 20.7035 1 13.8207 1V3C19.4662 3 24.2862 7.97259 24.2862 14.418H26.2862ZM13.8207 28.8361C17.3733 28.8361 20.5954 27.363 22.9906 24.9772L21.5791 23.5602C19.5285 25.6028 16.803 26.8361 13.8207 26.8361V28.8361ZM0.355225 14.418C0.355225 22.3103 6.31585 28.8361 13.8207 28.8361V26.8361C7.55657 26.8361 2.35522 21.347 2.35522 14.418H0.355225ZM13.8207 0C6.31585 0 0.355225 6.5258 0.355225 14.418H2.35522C2.35522 7.48912 7.55657 2 13.8207 2V0ZM27.2862 14.418C27.2862 6.5258 21.3256 0 13.8207 0V2C20.0848 2 25.2862 7.48912 25.2862 14.418H27.2862ZM23.7255 24.1866C25.9409 21.6123 27.2862 18.1778 27.2862 14.418H25.2862C25.2862 17.6977 24.1135 20.6696 22.2096 22.882L23.7255 24.1866ZM22.2348 24.2148L32.2396 34.9867L33.705 33.6256L23.7002 22.8538L22.2348 24.2148ZM32.2918 33.5734L31.5591 34.254L32.9202 35.7194L33.6529 35.0388L32.2918 33.5734ZM32.9723 34.3061L23.0176 23.5882L21.5521 24.9493L31.5069 35.6672L32.9723 34.3061Z" fill="black"/>
</svg>
