<svg width="17" height="16" viewBox="0 0 17 16" fill="none" xmlns="http://www.w3.org/2000/svg">
<path fill-rule="evenodd" clip-rule="evenodd" d="M12.4556 6.5C12.4556 9.53757 9.99313 12 6.95557 12C3.918 12 1.45557 9.53757 1.45557 6.5C1.45557 3.46243 3.918 1 6.95557 1C9.99313 1 12.4556 3.46243 12.4556 6.5ZM11.1847 11.4362C10.0479 12.411 8.57051 13 6.95557 13C3.36572 13 0.455566 10.0899 0.455566 6.5C0.455566 2.91015 3.36572 0 6.95557 0C10.5454 0 13.4556 2.91015 13.4556 6.5C13.4556 8.11495 12.8666 9.59234 11.8918 10.7291L16.3091 15.1464L15.602 15.8536L11.1847 11.4362Z" fill="black" fill-opacity="0.8"/>
</svg>
